<svg width="374.24" height="306.74" xmlns="http://www.w3.org/2000/svg" xmlns:xlink="http://www.w3.org/1999/xlink" data-name="Layer 1">
 <title>About</title>
 <defs>
  <linearGradient id="a" x1="0.4889" y1="-1.81793" x2="0.5384" y2="7.48125">
   <stop offset="0.01"/>
   <stop offset="0.08" stop-opacity="0.69"/>
   <stop offset="0.21" stop-opacity="0.32"/>
   <stop offset="1" stop-opacity="0"/>
  </linearGradient>
  <linearGradient id="d" x1="-737.38" y1="90.09" x2="-734.81" y2="88.16" gradientTransform="rotate(180 -252.805 176)" xlink:href="#a"/>
  <linearGradient id="e" x1="-982.47" y1="326.9" x2="-328.94" y2="-161.88" gradientTransform="rotate(180 -252.805 176)" xlink:href="#a"/>
  <linearGradient id="f" x1="-762.66" y1="184.94" x2="-694.83" y2="-30.49" gradientTransform="rotate(180 -252.805 176)" xlink:href="#a"/>
  <linearGradient id="g" x1="-724.19" y1="225.84" x2="-765.66" y2="-54.52" gradientTransform="rotate(180 -266.045 167.505)" xlink:href="#a"/>
  <linearGradient id="h" x1="-765.32" y1="186.64" x2="-797.28" y2="-29.39" gradientTransform="rotate(180 -266.045 167.505)" xlink:href="#a"/>
  <linearGradient id="i" x1="-787.53" y1="122.49" x2="-804.53" y2="78.76" gradientTransform="rotate(180 -252.805 176)" xlink:href="#a"/>
  <linearGradient id="j" x1="-712.32" y1="295.39" x2="-639.47" y2="-340.86" gradientTransform="rotate(180 -252.805 176)" xlink:href="#a"/>
  <linearGradient id="k" x1="224.71" y1="268.52" x2="107.66" y2="67.13" xlink:href="#a"/>
  <linearGradient id="l" x1="189.86" y1="254.1" x2="226.57" y2="134.07" gradientTransform="matrix(1 0 0 -1 -26.48 335.01)" xlink:href="#a"/>
  <linearGradient id="c" x1="0.26038" y1="0.05754" x2="1.17257" y2="1.53296">
   <stop offset="0" stop-color="#fff" stop-opacity="0"/>
   <stop offset="0.54" stop-color="#fff"/>
  </linearGradient>
  <linearGradient id="b" x1="0.54201" y1="1.55288" x2="0.49257" y2="-0.08829">
   <stop offset="0.01"/>
   <stop offset="0.13" stop-opacity="0.69"/>
   <stop offset="0.25" stop-opacity="0.32"/>
   <stop offset="1" stop-opacity="0"/>
  </linearGradient>
  <linearGradient id="m" x1="291.73" y1="112.6" x2="275.79" y2="151.72" xlink:href="#b"/>
  <linearGradient id="n" x1="98.76" y1="129.88" x2="120.94" y2="129.88" xlink:href="#a"/>
  <linearGradient id="o" x1="89.54" y1="129.68" x2="97.96" y2="129.68" xlink:href="#a"/>
  <linearGradient id="p" x1="86.84" y1="188.87" x2="108.8" y2="127.49" xlink:href="#a"/>
  <linearGradient id="q" x1="148.71" y1="96.14" x2="163.73" y2="162.02" xlink:href="#c"/>
  <linearGradient id="r" x1="146.63" y1="96.61" x2="161.65" y2="162.49" xlink:href="#c"/>
  <linearGradient id="s" x1="150.08" y1="95.82" x2="165.09" y2="161.71" xlink:href="#c"/>
  <linearGradient id="t" x1="147.9" y1="96.32" x2="162.92" y2="162.2" xlink:href="#c"/>
  <linearGradient id="u" x1="147.45" y1="96.42" x2="162.46" y2="162.31" xlink:href="#c"/>
  <linearGradient id="v" x1="136.58" y1="98.9" x2="151.6" y2="164.78" xlink:href="#c"/>
  <linearGradient id="w" x1="137.12" y1="98.77" x2="152.13" y2="164.66" xlink:href="#c"/>
  <linearGradient id="x" x1="112.46" y1="104.4" x2="127.47" y2="170.28" xlink:href="#c"/>
  <linearGradient id="y" x1="113.57" y1="104.15" x2="128.59" y2="170.03" xlink:href="#c"/>
  <linearGradient id="z" x1="122.23" y1="102.17" x2="137.25" y2="168.05" xlink:href="#c"/>
  <linearGradient id="A" x1="104.71" y1="106.16" x2="119.73" y2="172.05" xlink:href="#c"/>
  <linearGradient id="B" x1="118.28" y1="103.07" x2="133.3" y2="168.96" xlink:href="#c"/>
  <linearGradient id="C" x1="116.2" y1="103.54" x2="131.22" y2="169.43" xlink:href="#c"/>
  <linearGradient id="D" x1="119.66" y1="102.76" x2="134.67" y2="168.64" xlink:href="#c"/>
  <linearGradient id="E" x1="117.46" y1="103.25" x2="132.48" y2="169.14" xlink:href="#c"/>
  <linearGradient id="F" x1="135.33" y1="99.18" x2="150.34" y2="165.07" xlink:href="#c"/>
  <linearGradient id="G" x1="133.22" y1="99.66" x2="148.23" y2="165.55" xlink:href="#c"/>
  <linearGradient id="H" x1="136.68" y1="98.88" x2="151.7" y2="164.76" xlink:href="#c"/>
  <linearGradient id="I" x1="134" y1="99.49" x2="149.02" y2="165.37" xlink:href="#c"/>
 </defs>
 <g>
  <title>Layer 1</title>
  <path d="m170.52,0.32a218.94,218.94 0 0 0 -104.33,33c-14.67,9.3 -28.56,20.62 -37.67,35.43s-12.88,33.57 -7,49.91c3.51,9.71 10.11,17.95 14.82,27.13s7.42,20.48 2.73,29.67c-5.38,10.64 -18.36,14.55 -27.55,22.21c-14.59,12.14 -12.93,23.1 -8,38.94c4.27,13.84 11.13,25.82 22.26,35.28c21.74,18.48 51.84,24.19 79.17,28.73c39.6,6.58 80.2,8.3 120.06,3c19.51,-2.58 37.72,-8 56.63,-12.77c18.48,-4.63 37.1,-10.41 52.86,-21.45a93.21,93.21 0 0 0 28.4,-120.88c-15.76,-29 -45.66,-47.7 -63.83,-75.21c-10.68,-16.16 -17.11,-35.07 -29.55,-49.88c-11.43,-13.42 -41.59,-18.7 -57.94,-21.24a188.43,188.43 0 0 0 -24.76,-2.13c-5.43,-0.12 -10.87,-0.05 -16.3,0.26z" fill="#4fc3f7" opacity="0.18" id="svg_1"/>
  <path d="m62.32,226.7c3.58,2.58 7.17,5.16 10.94,7.45c6.83,4.15 14.19,7.34 21.52,10.51c2.14,0.92 4.29,1.85 6.44,2.74a11.82,11.82 0 0 0 4.4,1.16c3.35,0 6,-2.62 9,-4.2c2.61,-1.39 5.57,-2 8.21,-3.3c1,-0.48 2,-1.28 1.91,-2.35s-1,-1.58 -1.87,-2c-7.61,-4 -15.9,-6.65 -24.13,-9.22a10.52,10.52 0 0 0 -4.11,-0.72c-2.63,0.24 -4.68,2.33 -7.17,3.21a13.33,13.33 0 0 1 -5.14,0.52c-6.88,-0.37 -13.17,-3.73 -20,-3.8z" fill="url(#a)" id="svg_2"/>
  <path d="m204.6,245.51l-0.57,0.08c-0.42,0.33 0.75,0.42 0.57,-0.08z" fill="url(#d)" id="svg_3"/>
  <path d="m77.38,179.11c4.27,1.71 8.76,3.37 11.53,5.33l65.61,46.07a157.54,157.54 0 0 0 15.68,10c4.42,2.39 6.94,7 12.3,8.16a21.31,21.31 0 0 0 8,-0.14a74.82,74.82 0 0 0 12.68,-3.22c0.51,-0.17 1.22,-0.28 1.45,0.21c38.21,-5.22 74.75,-19.09 112.63,-26.31a2.08,2.08 0 0 0 0.39,-4a51.36,51.36 0 0 0 -9.78,-2.4c-6,-1.12 -12.07,-2.21 -18.13,-3.2a307.38,307.38 0 0 0 -36.93,-4.1c-20.56,-0.83 -41.3,1.33 -61.63,-1.86c-19.32,-3 -37.54,-10.75 -55.52,-18.46c-4.33,-1.86 -8.75,-3.79 -12.15,-7c-2.66,-2.55 -4.8,-5.94 -8.2,-7.62s-7.78,-1.44 -11.6,-1.26a172.4,172.4 0 0 0 -22.4,3c-1.4,2.2 -2.7,4.49 -3.93,6.8z" fill="url(#e)" id="svg_4"/>
  <path d="m315.52,206.27l-85.82,-37.33a10.27,10.27 0 0 0 -6,-1l-106.18,9.07c-2,0.29 -1.67,9 0,10.42l62.69,53.36a15.75,15.75 0 0 0 14,3.52l120.57,-29.3c1.53,-0.42 2.19,-8 0.74,-8.74z" fill="#4fc3f7" id="svg_5"/>
  <path d="m315.52,206.27l-85.82,-37.33a10.27,10.27 0 0 0 -6,-1l-106.18,9.07c-2,0.29 -1.67,9 0,10.42l62.69,53.36a15.75,15.75 0 0 0 14,3.52l120.57,-29.3c1.53,-0.42 2.19,-8 0.74,-8.74z" fill="url(#f)" id="svg_6"/>
  <path d="m117.52,181.19l62.68,53.36a15.71,15.71 0 0 0 14,3.51l120.52,-29.29a2,2 0 0 0 1.06,-2.62a2,2 0 0 0 -0.76,-0.9l-33.05,-18.65l-8.67,-4.87l-26.39,-14.89a10.27,10.27 0 0 0 -6,-1l-122.3,10.65c-2.04,0.29 -2.71,3.3 -1.09,4.7z" fill="#4fc3f7" id="svg_7"/>
  <path fill="url(#g)" d="m240.96,168.79l-111.84,16.55l34.43,27.94l114.77,-23.22l-37.36,-21.27z" id="svg_8"/>
  <path fill="url(#h)" d="m252.66,197l-46.09,9.31l23.83,19.44l47.92,-10.75l-25.66,-18z" id="svg_9"/>
  <path d="m275.7,218.37a7.43,7.43 0 0 1 -4.75,3.89c-3.38,0.81 -23.12,5.86 -23.12,5.86s-3.21,0.39 -5,-1.76l32.87,-7.99z" fill="url(#i)" id="svg_10"/>
  <path d="m244.46,165.84l-126.21,18a3.67,3.67 0 0 1 -4.1,-2.91l-18,-90.92a7,7 0 0 1 5.44,-8.27a6.21,6.21 0 0 1 0.85,-0.12l124.64,-11a7,7 0 0 1 7.62,6.25l9.76,88.97z" fill="#4fc3f7" id="svg_11"/>
  <path d="m244.46,165.84l-125.88,17.91a4,4 0 0 1 -4.5,-3.19l-17.94,-90.55a7,7 0 0 1 5.44,-8.27a6.21,6.21 0 0 1 0.85,-0.12l124.65,-11a7,7 0 0 1 7.62,6.25l9.76,88.97z" fill="url(#j)" id="svg_12"/>
  <path fill="#fff" d="m120.52,178.57l-17.92,-91.74l127.44,-8.86l10.11,86.85l-119.63,13.75z" id="svg_13"/>
  <path d="m298.33,141.9a33.44,33.44 0 1 1 -66.88,0a21.57,21.57 0 0 1 0.1,-2.55a33.44,33.44 0 0 1 66.78,2.55z" fill="#4fc3f7" id="svg_14"/>
  <path d="m250.83,157.09c-1.1,4.83 0.25,10 -0.74,14.8a33.59,33.59 0 0 1 -16.64,-18.56a20.4,20.4 0 0 1 0.13,-5a13.34,13.34 0 0 0 0.05,-5.34a12.25,12.25 0 0 0 -2.08,-3.65a33.38,33.38 0 0 1 14,-24.7a1.94,1.94 0 0 1 0,0.68l-1.43,6.37a19.38,19.38 0 0 1 0,5.69a6.58,6.58 0 0 1 -3.1,4.57a13.68,13.68 0 0 0 -1.8,0.89a5.77,5.77 0 0 0 -1.36,1.63a13.42,13.42 0 0 0 -2,4.26a4.77,4.77 0 0 0 1.06,4.41l9.32,-1.81c1,-0.19 2.16,-0.32 2.83,0.42s0.3,2.27 0.48,3.45c0.22,1.51 1.56,2.59 2.18,4c1.03,2.47 -0.28,5.25 -0.9,7.89zm47.5,-15.19a33.37,33.37 0 0 1 -12.74,26.27a4.27,4.27 0 0 1 -1.16,-1.16a3.41,3.41 0 0 1 0.92,-4.73c-0.56,0.29 -2.77,-0.43 -3.43,-0.54l-3.44,-0.53c-1.65,-0.25 -4.53,-0.15 -5.49,-1.81a3.86,3.86 0 0 0 -0.39,-0.65a2.06,2.06 0 0 0 -0.71,-0.49c-1,-0.51 -2.25,-1.08 -2.5,-2.21c-0.17,-0.82 0.24,-1.76 -0.18,-2.5c-0.14,-0.22 -0.34,-0.4 -0.47,-0.63a2.14,2.14 0 0 1 0.23,-2.1c1.45,-2.54 4.46,-3.76 7.34,-4.25s5.86,-0.41 8.67,-1.23a37.56,37.56 0 0 1 5.29,-1.62c1,-0.14 2.26,-0.24 2.63,-1.19c0.21,-0.53 0,-1.16 0.22,-1.7c0.08,-0.23 0.23,-0.44 0.32,-0.67a1.38,1.38 0 0 0 -0.89,-1.73a1.22,1.22 0 0 0 -0.26,-0.06c0.23,-0.63 0.42,-1.43 -0.07,-1.88a1.33,1.33 0 0 0 -1.22,-0.19c-1.2,0.31 -2.07,1.32 -3.08,2c-3.34,2.37 -7.91,1.53 -10.7,-1.26a3,3 0 0 1 -0.93,-1.51a2.43,2.43 0 0 1 1.42,-2.4a7,7 0 0 1 2.89,-0.57l-1.1,-7.25c-5.56,1.49 -7.82,-3.8 -8.61,-8.2s2.33,-6 6.36,-6.27a33.46,33.46 0 0 1 21.08,31.06z" fill="#020202" opacity="0.14" id="svg_15"/>
  <path d="m138.21,144.43c1,9 1.06,18.11 2.67,27c0.37,2 1,4.28 2.78,5.29a7.16,7.16 0 0 0 4.52,0.4a93.67,93.67 0 0 0 27.43,-8.18a181,181 0 0 0 -11.09,-34.76c-1.27,-2.9 -2.66,-5.84 -4.92,-8.06c-3.43,-3.36 -8.18,-4.42 -12.74,-5.32c-2.37,-0.47 -4.78,-0.79 -7.13,-1.39c-1.45,-0.37 -5.57,-2.79 -6.77,-2.56c-4,0.75 0,7.07 1,9.52a66,66 0 0 1 4.25,18.06z" fill="url(#k)" id="svg_16"/>
  <path fill="#4fc3f7" d="m222.05,114.03l-95.31,9.03l-2.43,-11.14l95.32,-9.04l2.42,11.15z" id="svg_17"/>
  <path fill="url(#l)" d="m222.05,114.03l-95.31,9.03l-2.43,-11.14l95.32,-9.04l2.42,11.15z" id="svg_18"/>
  <path d="m211.77,107.5c7.36,-0.79 14.49,3.9 18.43,10.16s5,9.29 5.5,16.67c0.16,2.4 0.36,5.06 2.13,6.69c2.95,2.71 7.56,0.6 11.42,-0.46c9.15,-2.52 19.78,2.84 23.2,11.7c3.34,8.65 -1.44,21.49 6.16,26.81c6.77,4.72 25,-6.67 30.71,-16.92c0,0 1.66,22.51 -16.11,33.76c-26.37,16.7 -75.8,23.19 -81,22.63c-8.65,-0.95 -18.09,-3.95 -22.23,-11.6s-1.46,-17.27 -1.46,-26.1c0,-5.08 -2.29,-11.44 -7.37,-11.55c-3.8,-0.09 -6.55,3.53 -8.32,6.89s-3.62,7.23 -7.23,8.43c-3.22,1.07 -6.88,-0.52 -9.09,-3.09s-3.22,-6 -3.9,-9.29c-2.35,-11.54 -1.28,-23.53 -3.17,-35.16c-0.72,-4.42 -2,-8.95 -5,-12.26s-10.05,-8.21 -15.43,-8l82.76,-9.31z" fill="#4fc3f7" id="svg_19"/>
  <path d="m211.77,107.5c7.36,-0.79 14.49,3.9 18.43,10.16s5,9.29 5.5,16.67c0.16,2.4 0.36,5.06 2.13,6.69c2.95,2.71 7.56,0.6 11.42,-0.46c9.15,-2.52 19.78,2.84 23.2,11.7c2.78,7.2 1.12,15.28 3.81,22.49c1.56,4.2 4.07,4.7 8.44,4.39a24.31,24.31 0 0 0 11.82,-4.42c5.23,-3.61 9.25,-8.68 13.19,-13.67c-0.93,6.15 -0.77,12.54 -2.86,18.39c-3.45,9.68 -12.4,16.24 -21.33,21.33a164,164 0 0 1 -48.79,18.24c-8,1.62 -16.38,0.37 -24.48,-0.51c-8.65,-1 -18.09,-4 -22.23,-11.6s-1.45,-17.27 -1.42,-26.1c0,-5.08 -2.29,-11.44 -7.37,-11.55c-3.8,-0.09 -6.55,3.53 -8.32,6.89s-3.62,7.23 -7.23,8.43c-3.22,1.07 -6.88,-0.52 -9.09,-3.09s-3.22,-6 -3.9,-9.29c-2.35,-11.54 -1.28,-23.53 -3.17,-35.16c-0.72,-4.42 -2,-9 -5,-12.26s-10.05,-8.21 -15.43,-8l82.68,-9.27z" fill="url(#c)" id="svg_20"/>
  <path d="m242.84,142.25l-62.15,23.5s-3.43,0.83 -7.78,10.43s-19.86,13 -20.65,-17.64s-2.41,-28.7 -6.3,-35.06l89.56,8.86s-0.59,12.16 7.32,9.91z" fill="url(#b)" id="svg_21"/>
  <path d="m134.37,118.07c2.8,3.21 4.28,7.34 5.4,11.45c3.47,12.6 4.22,25.81 3.94,38.89c-0.1,4.65 -0.31,9.4 1,13.85a20.94,20.94 0 0 0 13.68,13.81c3.75,1.16 7.88,1.27 11.25,3.28c6.67,4 7.51,13.37 12.56,19.28c6.79,7.94 20.37,8.69 25,18" fill="none" id="svg_22"/>
  <path fill="none" stroke="#473f47" stroke-linecap="round" stroke-linejoin="round" stroke-width="2" d="m165.55,121.84l46.96,-5.01m-41.59,20.05l46.96,-5.01m-44.7,15.04l46.97,-5.01m-14.38,-16.23l9.12,-0.97m-27.37,2.92l12.36,-1.32m-31.96,3.41l11.04,-1.18m29.5,38.38l45.98,-17.07m-42.25,32.02l45.98,-17.07m-44.77,27.37l45.99,-17.07m-12.34,-14.01l8.92,-3.31m-26.79,9.94l12.1,-4.49m-31.29,11.62l10.81,-4.02" id="svg_23"/>
  <path d="m305,167.84s-43,38.38 -72,34.29c0,0 -23.83,26.91 -33.17,11.16s6.69,-25.89 6.69,-25.89l69.69,-12.65s4.62,15.55 28.79,-6.91z" opacity="0.45" fill="url(#m)" id="svg_24"/>
  <path d="m93.95,231.36c0.09,1.16 1.74,1.18 3.61,1s1.37,0.26 4,0.29s3.53,-0.83 3.66,-1.2s-1.15,-0.61 -2.5,-0.94l-0.52,-0.13c-1.52,-0.39 -2.53,-1.53 -3.83,-2.52s-2.82,-4.36 -2.82,-4.36l-3.59,-0.16s1.51,3.06 2.08,4.38a4.47,4.47 0 0 1 0,2.46a4.67,4.67 0 0 0 -0.09,1.18z" fill="#ffb27d" id="svg_25"/>
  <path d="m97.52,232.32c1.87,-0.22 1.37,0.26 4,0.29s3.53,-0.83 3.66,-1.2s-1.15,-0.61 -2.5,-0.94a7.41,7.41 0 0 1 -3.85,0.69c-1.76,-0.18 -3.55,-0.91 -4.76,-1a4.56,4.56 0 0 0 -0.13,1.22c0.1,1.14 1.75,1.16 3.58,0.94z" fill="#473f47" id="svg_26"/>
  <path d="m70.1,230.18l0.39,0.2a27.41,27.41 0 0 0 5,1.66a4.21,4.21 0 0 0 1.73,0.13a2.49,2.49 0 0 0 1,-0.44c0.14,-0.11 0.28,-0.28 0.2,-0.43a0.33,0.33 0 0 0 -0.12,-0.14c-0.76,-0.61 -1.71,-0.8 -2.51,-1.35s-1.44,-1.18 -2.18,-1.74c-1.24,-0.95 0,-6.54 0,-6.54l-3.93,-0.38s0.18,4.71 0.18,6.84c0,0.64 -0.54,1.5 0,2a0.88,0.88 0 0 0 0.24,0.19z" fill="#ffb27d" id="svg_27"/>
  <path d="m72.85,232.52a17.09,17.09 0 0 0 2.2,0.82a7.26,7.26 0 0 0 2.26,0.4a3.33,3.33 0 0 0 2.15,-0.71a0.69,0.69 0 0 0 0.3,-0.49a0.82,0.82 0 0 0 -0.19,-0.47a4.14,4.14 0 0 0 -1.39,-1.24c-0.29,-0.14 -0.46,0 -0.74,0.15a5.76,5.76 0 0 1 -1,0.3a7.33,7.33 0 0 1 -6.6,-1.94s-0.07,-0.09 -0.12,-0.1s-0.2,0.1 -0.22,0.22a1.38,1.38 0 0 0 0.2,1.1a2.47,2.47 0 0 0 0.69,0.64a14.56,14.56 0 0 0 2.46,1.32z" fill="#473f47" id="svg_28"/>
  <path d="m80.84,135.01a10.61,10.61 0 0 0 0.1,-1.87a4,4 0 0 0 -0.48,-1.85c-0.21,-0.38 -0.79,-0.73 -0.94,-1.08a8.64,8.64 0 0 0 -5.55,-4.48a9.81,9.81 0 0 0 -5.16,0.69a3.26,3.26 0 0 0 -1.18,0.58a2.94,2.94 0 0 0 -0.67,1.06a21.83,21.83 0 0 0 -1,2.58a7.67,7.67 0 0 0 -3,-2.63a4.37,4.37 0 0 0 -4.21,0.82a5.64,5.64 0 0 0 -1.9,3.92a12,12 0 0 1 -0.22,2.87a3.16,3.16 0 0 1 -2.54,2.1a5.12,5.12 0 0 0 5.18,2.19a20.09,20.09 0 0 1 -1.2,2.3a5.67,5.67 0 0 0 3.85,-0.26a5.76,5.76 0 0 0 1.82,-2.16l-0.83,1.81c1.44,-1.36 1.08,-4 2.58,-5.27c0.43,0.21 0.59,0.74 0.89,1.11s1,0.5 1.16,0a6.76,6.76 0 0 0 1.12,3.19a4.36,4.36 0 0 0 3.76,1.7c0.27,0 0.61,-0.2 0.52,-0.44c0.65,-0.14 1,-0.84 1.58,-1.19c0.75,-0.47 1.72,-0.24 2.6,-0.39a3.93,3.93 0 0 0 2.53,-1.86a8.44,8.44 0 0 0 1.19,-3.44z" fill="#fc682d" id="svg_29"/>
  <path d="m78.16,145.56a5.9,5.9 0 0 1 -3.66,0.66a4.74,4.74 0 0 1 -2.44,-2.33c0.63,-0.13 0.81,-1 0.8,-4.71l0.28,0.06l4.79,0.94s-0.11,1.51 -0.11,2.93c-0.01,1.19 0.07,2.32 0.34,2.45z" fill="#ffb27d" id="svg_30"/>
  <path d="m77.93,140.18s-0.11,1.51 -0.11,2.93c-2.68,-0.08 -4.1,-2.52 -4.68,-3.87l4.79,0.94z" fill="#ed975d" id="svg_31"/>
  <path d="m97.4,225.36a1.19,1.19 0 0 1 -0.78,1.48a0.93,0.93 0 0 1 -0.29,0l-1.87,0.09l-2,0.06a1.55,1.55 0 0 1 -1.28,-0.59a55.29,55.29 0 0 1 -9.39,-17.77c-0.08,-0.26 -0.17,-0.53 -0.26,-0.8c-2,-5.67 -6,-12.8 -8.11,-19.25c-0.34,-1 -0.64,-2 -0.92,-2.9c-0.08,-0.3 -0.17,-0.59 -0.25,-0.87a68.51,68.51 0 0 1 -2.41,-12.8l15.36,0.12a337.26,337.26 0 0 0 12.2,53.23z" fill="#473f47" id="svg_32"/>
  <path d="m83.05,163.32c0,7.31 1.07,10.44 1.07,10.44a20.63,20.63 0 0 1 -14.39,0.88l-6.47,-1.48c0.13,-0.3 1.29,-5.22 1.42,-5.49c1.65,-3.55 2.9,-5.1 3.1,-6.19a23.23,23.23 0 0 0 0.19,-6.12a49.1,49.1 0 0 0 -1.9,-9.61a50.4,50.4 0 0 0 6.34,-2.17a5,5 0 0 0 3.42,1.27c1.56,0 2.06,-0.7 2,-1.43c1.66,0.92 3,1.79 3,1.79c1.41,2.45 4.27,4.83 4.47,8.59c0.02,0.92 -2.25,9.32 -2.25,9.52z" fill="#fff" id="svg_33"/>
  <path d="m69.84,164.13c-0.67,0.95 -2,6.73 -5.16,7.46c1.65,-4.12 2.9,-5.93 3.1,-7.19a31.32,31.32 0 0 0 0.19,-7.11c1.07,-1.88 1.87,-3.17 1.87,-3.17c0.09,-0.3 1.7,-5.31 2.22,-0.83a20.66,20.66 0 0 1 -2.22,10.84z" fill="#4fc3f7" id="svg_34"/>
  <path d="m78.82,141.53s-6.33,0.1 -6.34,-3.84s-0.82,-6.59 3.22,-6.83s4.84,1.27 5.16,2.59s-0.34,7.95 -2.04,8.08z" fill="#ffb27d" id="svg_35"/>
  <path d="m78.59,130.77s-1.74,4.63 -4.4,5.31s-3.81,0 -3.81,0a7.54,7.54 0 0 0 2.46,-4.45s4.44,-3.07 5.75,-0.86z" fill="#fc682d" id="svg_36"/>
  <path d="m78.16,131.14a5.79,5.79 0 0 1 1.61,2c0.32,1 0.46,3.07 1.06,3c0,0 1.31,-3.14 -0.16,-4.92s-2.51,-0.08 -2.51,-0.08z" fill="#fc682d" id="svg_37"/>
  <path fill="#ffb27d" d="m91.32,166.15l4.75,8.35l-1.54,1l-6.45,-6.91l3.24,-2.44z" id="svg_38"/>
  <path d="m78.7,144.52s3.73,0.67 5.17,2.6s5.86,16 6.76,17.33s1.59,2.43 1.59,2.43a7.37,7.37 0 0 1 -3.17,2.28c-1.73,0.47 -10.35,-24.64 -10.35,-24.64z" fill="#4fc3f7" id="svg_39"/>
  <path d="m77.81,143.42s3.67,9.05 3.78,10.89s0.43,30 0.43,30s-0.22,1.29 2.26,0.75a8.32,8.32 0 0 0 3.13,-1.07s-2.37,-17.36 -1.73,-23.39s-5,-15.88 -5,-15.88l-2.87,-1.3z" fill="#4fc3f7" id="svg_40"/>
  <path d="m94.46,227.01l-2.14,0.06a1.2,1.2 0 0 1 -1,-0.45a55.45,55.45 0 0 1 -9.5,-17.91c-0.08,-0.26 -0.17,-0.53 -0.26,-0.8c-2,-5.67 -6,-12.8 -8.11,-19.25c-0.34,-1 -0.64,-2 -0.92,-2.9c-0.08,-0.3 -0.17,-0.59 -0.25,-0.87l2.26,-1.71s6.79,11 8.89,21.34c1.83,8.95 9.14,19.77 11.03,22.49z" fill="url(#n)" id="svg_41"/>
  <path d="m74.78,205.45c0,4.76 -0.19,15.37 -0.77,20.55a0.93,0.93 0 0 1 -0.93,0.84l-3.12,0a0.63,0.63 0 0 1 -0.6,-0.5c-1.59,-8.11 -2.73,-14.84 -3.56,-20.66c-0.7,-4.88 -1.32,-9 -1.8,-12.65s-0.82,-6.65 -0.94,-9.21l0,-2.29l13.27,-1.29c-0.21,8.77 -1.57,22.29 -1.55,25.21z" fill="#473f47" id="svg_42"/>
  <path d="m71.52,226.84l-1.45,0a0.76,0.76 0 0 1 -0.73,-0.6c-1.58,-8.07 -2.71,-14.77 -3.54,-20.56c-0.7,-4.88 -1.32,-9 -1.8,-12.65s-0.82,-6.65 -0.94,-9.21l4.87,2.87s-3.1,1.09 -1.92,9.39s3.81,29.58 5.51,30.76z" fill="url(#o)" id="svg_43"/>
  <path d="m72.1,183.73s-0.93,3.38 -4.17,2.95a38.86,38.86 0 0 1 -7.83,-2.37s1.38,-4.37 3.1,-10.11c2.08,-6.94 4.66,-15.89 5.87,-21.54a36,36 0 0 0 0.66,-3.85l2.68,-5.21s4,9 4.22,11.24s-4.53,28.89 -4.53,28.89z" fill="#4fc3f7" id="svg_44"/>
  <path d="m71.96,159.59c-0.15,3.66 -1,10.78 -8.7,14.58l-0.06,0c2.08,-6.94 4.66,-15.89 5.87,-21.54c1.45,2.14 2.97,4.94 2.89,6.96z" fill="url(#p)" id="svg_45"/>
  <path d="m72.41,143.6s-6.56,0.47 -8.14,4s-1.51,8.17 -1.36,11.93c0.09,2.28 0.15,4.65 1.22,6.72a30.19,30.19 0 0 0 5.25,6.5a2.73,2.73 0 0 0 1.15,0.83a2.39,2.39 0 0 0 1.49,-0.19a8.26,8.26 0 0 0 2.86,-1.91c-0.33,-0.29 -0.46,-1 -0.71,-1.43a17.06,17.06 0 0 1 -1,-1.89a42.18,42.18 0 0 0 -2,-3.83a23.17,23.17 0 0 1 -2,-3.17a4.24,4.24 0 0 1 0.07,-3.6a32.92,32.92 0 0 0 1,-4.26c0.72,-3.23 1.44,-6.47 2.17,-9.7z" fill="#4fc3f7" id="svg_46"/>
  <path d="m108.1,219.55c-1.38,-0.62 -2.5,0.17 -2.5,1.77a4.77,4.77 0 0 0 2.5,4c1.38,0.62 2.49,-0.17 2.49,-1.77a4.76,4.76 0 0 0 -2.49,-4z" fill="#4fc3f7" fill-rule="evenodd" id="svg_47"/>
  <path d="m107.3,219.33a3.85,3.85 0 0 0 -1.54,0.23c-0.31,0.14 1.76,1.32 1.54,-0.23zm0.78,6.33a3.79,3.79 0 0 0 1.53,-0.22c0.31,-0.14 -1.78,-1.32 -1.53,0.22z" fill="#4fc3f7" fill-rule="evenodd" id="svg_48"/>
  <path d="m107.19,219.66c-1.38,-0.62 -2.49,0.17 -2.49,1.77a4.74,4.74 0 0 0 2.49,4c1.38,0.63 2.5,-0.16 2.5,-1.76a4.79,4.79 0 0 0 -2.5,-4.01z" fill="#4fc3f7" fill-rule="evenodd" id="svg_49"/>
  <path d="m107.19,221.71c-0.4,-0.19 -0.73,0.05 -0.73,0.52a1.39,1.39 0 0 0 0.73,1.18c0.41,0.18 0.74,-0.05 0.74,-0.52a1.39,1.39 0 0 0 -0.74,-1.18zm-15.73,-8.58l25.6,17.87l-0.33,0.69l-25.6,-17.88l0.33,-0.68z" fill="#4fc3f7" fill-rule="evenodd" id="svg_50"/>
  <path fill="#4fc3f7" fill-rule="evenodd" d="m94.7,212.16l25.6,17.87l-0.32,0.69l-25.61,-17.88l0.33,-0.68zm3.54,-2.38l25.6,17.87l-0.33,0.67l-25.6,-17.86l0.33,-0.68zm3.65,-0.9l25.6,17.87l-0.33,0.69l-25.6,-17.88l0.33,-0.68zm21.63,21.44c-1.38,-0.62 -2.49,0.17 -2.49,1.77a4.76,4.76 0 0 0 2.49,4c1.38,0.62 2.5,-0.17 2.5,-1.77a4.77,4.77 0 0 0 -2.5,-4z" id="svg_51"/>
  <path d="m122.75,230.1a3.85,3.85 0 0 0 -1.54,0.23c-0.31,0.14 1.78,1.32 1.54,-0.23zm0.77,6.33a3.84,3.84 0 0 0 1.54,-0.22c0.32,-0.14 -1.77,-1.32 -1.54,0.22z" fill="#4fc3f7" fill-rule="evenodd" id="svg_52"/>
  <path d="m122.64,230.43c-1.37,-0.62 -2.49,0.17 -2.49,1.77a4.74,4.74 0 0 0 2.49,4c1.38,0.63 2.5,-0.16 2.5,-1.76a4.79,4.79 0 0 0 -2.5,-4.01z" fill="#4fc3f7" fill-rule="evenodd" id="svg_53"/>
  <path d="m122.64,232.48c-0.4,-0.19 -0.73,0.05 -0.73,0.52a1.39,1.39 0 0 0 0.73,1.18c0.41,0.18 0.74,0 0.74,-0.52a1.39,1.39 0 0 0 -0.74,-1.18z" fill="#4fc3f7" fill-rule="evenodd" id="svg_54"/>
  <path d="m123.23,229.22a0.73,0.73 0 0 0 -0.59,-0.69a0.48,0.48 0 0 0 -0.57,0.37a0.49,0.49 0 0 0 0,0.12l0,4.2a0.73,0.73 0 0 0 0.58,0.69a0.46,0.46 0 0 0 0.57,-0.33a0.39,0.39 0 0 0 0,-0.15l0.01,-4.21zm-15.45,-10.76a0.75,0.75 0 0 0 -0.59,-0.7a0.49,0.49 0 0 0 -0.58,0.38a0.41,0.41 0 0 0 0,0.11l0,4.2a0.73,0.73 0 0 0 0.59,0.69a0.46,0.46 0 0 0 0.57,-0.33a0.39,0.39 0 0 0 0,-0.15l0.01,-4.2zm0.8,-30.74l0.82,23.71a0.4,0.4 0 0 0 0.33,0.39a0.28,0.28 0 0 0 0.3,-0.26l0,-0.05l-0.81,-23.71a0.42,0.42 0 0 0 -0.33,-0.39a0.28,0.28 0 0 0 -0.31,0.25l0,0.06zm20.52,14.5l-4,20.3a0.41,0.41 0 0 0 0.25,0.45a0.26,0.26 0 0 0 0.35,-0.15a0.14,0.14 0 0 0 0,-0.06l4,-20.29a0.4,0.4 0 0 0 -0.2,-0.46a0.28,0.28 0 0 0 -0.36,0.13a0.19,0.19 0 0 0 0,0.07l-0.04,0.01zm-14.89,-10.53l-1.48,22.15a0.41,0.41 0 0 0 0.3,0.42a0.28,0.28 0 0 0 0.33,-0.21l1.48,-22.16a0.41,0.41 0 0 0 -0.3,-0.42a0.28,0.28 0 0 0 -0.33,0.21a0.13,0.13 0 0 0 0,0.01zm9.54,6.74l-3.63,20.58a0.42,0.42 0 0 0 0.26,0.44a0.27,0.27 0 0 0 0.35,-0.12a0.29,0.29 0 0 0 0,-0.09l3.62,-20.56a0.42,0.42 0 0 0 -0.25,-0.45a0.26,0.26 0 0 0 -0.35,0.15a0.19,0.19 0 0 0 0,0.07l0,-0.02zm-7.32,18a0.41,0.41 0 0 0 0.28,0.43a0.26,0.26 0 0 0 0.33,-0.15a0.29,0.29 0 0 0 0,-0.09l2.68,-21.23a0.41,0.41 0 0 0 -0.2,-0.38a0.26,0.26 0 0 0 -0.34,0.16a0.24,0.24 0 0 0 0,0.08l-2.75,21.18z" fill="#4fc3f7" fill-rule="evenodd" id="svg_55"/>
  <path d="m103.99,185.01l31.79,22.62l-6,17.31l-24.26,-17.21l-1.53,-22.72zm0.69,23.62l25.16,17.91a0.55,0.55 0 0 0 0.78,-0.06l0.07,-0.11l6.48,-18.63a0.82,0.82 0 0 0 -0.31,-0.9l-33.34,-23.66a0.55,0.55 0 0 0 -0.78,0.06l-0.07,0.11a0.84,0.84 0 0 0 -0.07,0.35l1.71,24.31a0.8,0.8 0 0 0 0.37,0.65l0,-0.03z" fill="#4fc3f7" fill-rule="evenodd" id="svg_56"/>
  <path fill="#4fc3f7" fill-rule="evenodd" d="m110.19,211.9l-18.48,6.69l-0.33,-0.8l18.49,-6.69l0.32,0.8zm3.34,2.48l-18.49,6.68l-0.32,-0.78l18.49,-6.69l0.32,0.79zm3.49,2.31l-18.48,6.69l-0.33,-0.79l18.49,-6.68l0.32,0.78zm4.31,3.06l-18.49,6.68l-0.32,-0.8l18.49,-6.67l0.32,0.79zm4.44,3.35l-18.49,6.69l-0.32,-0.79l18.49,-6.69l0.32,0.79zm-38.1,-9.09l-6.05,-21.07l21.09,-8.19l1.56,22.8l-16.6,6.46zm17.9,-5.89l-1.67,-24.32a0.8,0.8 0 0 0 -0.68,-0.75a0.58,0.58 0 0 0 -0.26,0.05l-22.4,8.7a0.63,0.63 0 0 0 -0.32,0.78l6.45,22.43a0.74,0.74 0 0 0 0.8,0.58l0.11,0l17.63,-6.85a0.58,0.58 0 0 0 0.34,-0.62z" id="svg_57"/>
  <path d="m98.96,185.29l2.36,24.05a0.4,0.4 0 0 0 0.35,0.37a0.28,0.28 0 0 0 0.28,-0.3l-2.35,-24.05a0.41,0.41 0 0 0 -0.35,-0.37a0.29,0.29 0 0 0 -0.29,0.29l0,0.01zm-4.55,1.78l3.5,23.62a0.39,0.39 0 0 0 0.37,0.34a0.29,0.29 0 0 0 0.27,-0.31l0,-0.05l-3.5,-23.61a0.39,0.39 0 0 0 -0.36,-0.34a0.3,0.3 0 0 0 -0.28,0.3l0,0.05zm-8,3.13l4.27,23.31a0.38,0.38 0 0 0 0.37,0.34a0.3,0.3 0 0 0 0.26,-0.34l-4.27,-23.31a0.39,0.39 0 0 0 -0.38,-0.33a0.28,0.28 0 0 0 -0.25,0.31a0.11,0.11 0 0 0 0,0.02zm4.24,-1.92a0.39,0.39 0 0 1 0.37,0.34l3.9,23.46a0.28,0.28 0 0 1 -0.21,0.35a0.39,0.39 0 0 1 -0.37,-0.34l-3.9,-23.45a0.29,0.29 0 0 1 0.2,-0.36l0.01,0zm14.32,28.84a0.73,0.73 0 0 0 0.62,0.65a0.47,0.47 0 0 0 0.55,-0.38a0.66,0.66 0 0 0 0,-0.14l-2.89,-42a0.73,0.73 0 0 0 -0.63,-0.66a0.47,0.47 0 0 0 -0.54,0.39a0.33,0.33 0 0 0 0,0.14l2.89,42z" fill="#4fc3f7" fill-rule="evenodd" id="svg_58"/>
  <path d="m103.18,176.16a0.92,0.92 0 0 0 0.45,-1.23a0.67,0.67 0 0 0 -0.06,-0.12a1.18,1.18 0 0 0 -1.42,-0.64l-24.13,9.37a0.93,0.93 0 0 0 -0.47,1.21a0.54,0.54 0 0 0 0.07,0.13a1.21,1.21 0 0 0 1.42,0.65l24.14,-9.37z" fill="#4fc3f7" fill-rule="evenodd" id="svg_59"/>
  <path d="m95.6,174.34s3,0.93 3.56,2s0.82,3.46 0.39,3.52s-1.58,-2.33 -2,-2.43s-1,-0.53 -0.91,-0.15s0.58,1 0.42,1.17s-0.94,-0.84 -1.37,-1s-0.94,-1.84 -1.42,-2.24s1.33,-0.87 1.33,-0.87zm-20.72,-3.52l4.75,8.34l-1.53,1.03l-6.46,-6.93l3.24,-2.44z" fill="#4fc3f7" id="svg_60"/>
  <path d="m79.17,179.01a3.88,3.88 0 0 1 0.72,0.26a5.07,5.07 0 0 1 1.42,0.65a6.86,6.86 0 0 1 1.77,2.36a1.7,1.7 0 0 1 0.13,1.46a1.92,1.92 0 0 1 -0.87,0.67a0.75,0.75 0 0 1 -0.3,0.09a0.79,0.79 0 0 1 -0.43,-0.21l-2.21,-1.85a3.12,3.12 0 0 1 -0.82,-0.88c-0.19,-0.34 -0.25,-0.74 -0.42,-1.09s-0.51,-0.55 -0.26,-0.89s0.9,-0.46 1.27,-0.57z" fill="#4fc3f7" id="svg_61"/>
  <path d="m88.86,222.81a0.69,0.69 0 0 0 0.73,0.52a0.48,0.48 0 0 0 0.42,-0.53l0,-0.12l-10.89,-38.22a0.71,0.71 0 0 0 -0.73,-0.52a0.5,0.5 0 0 0 -0.42,0.55l0,0.11l10.89,38.21zm3.66,3.09c-1.38,-0.63 -2.49,0.16 -2.49,1.76a4.76,4.76 0 0 0 2.49,4c1.38,0.62 2.5,-0.17 2.5,-1.77a4.74,4.74 0 0 0 -2.5,-3.99z" fill="#4fc3f7" fill-rule="evenodd" id="svg_62"/>
  <path d="m91.75,225.67a3.85,3.85 0 0 0 -1.54,0.23c-0.31,0.11 1.78,1.32 1.54,-0.23zm0.77,6.34a3.67,3.67 0 0 0 1.54,-0.22c0.32,-0.15 -1.77,-1.33 -1.54,0.22z" fill="#4fc3f7" fill-rule="evenodd" id="svg_63"/>
  <path d="m91.64,226.01c-1.37,-0.62 -2.49,0.17 -2.49,1.77a4.74,4.74 0 0 0 2.49,4c1.38,0.63 2.5,-0.16 2.5,-1.76a4.79,4.79 0 0 0 -2.5,-4.01z" fill="#4fc3f7" fill-rule="evenodd" id="svg_64"/>
  <path d="m91.64,228.01c-0.4,-0.19 -0.73,0.05 -0.73,0.52a1.39,1.39 0 0 0 0.73,1.18c0.41,0.19 0.74,0 0.74,-0.52a1.39,1.39 0 0 0 -0.74,-1.18zm16.36,8.65c-1.37,-0.62 -2.49,0.17 -2.49,1.77a4.76,4.76 0 0 0 2.49,4c1.38,0.62 2.5,-0.17 2.5,-1.77a4.77,4.77 0 0 0 -2.5,-4z" fill="#4fc3f7" fill-rule="evenodd" id="svg_65"/>
  <path d="m107.2,236.44a3.85,3.85 0 0 0 -1.54,0.23c-0.3,0.14 1.78,1.34 1.54,-0.23zm0.78,6.33a3.84,3.84 0 0 0 1.54,-0.22c0.31,-0.14 -1.78,-1.32 -1.54,0.22z" fill="#4fc3f7" fill-rule="evenodd" id="svg_66"/>
  <path d="m107.1,236.77c-1.38,-0.62 -2.5,0.17 -2.5,1.77a4.74,4.74 0 0 0 2.5,4c1.38,0.63 2.49,-0.16 2.49,-1.76a4.76,4.76 0 0 0 -2.49,-4.01z" fill="#4fc3f7" fill-rule="evenodd" id="svg_67"/>
  <path d="m107.69,235.57a0.75,0.75 0 0 0 -0.59,-0.7a0.48,0.48 0 0 0 -0.58,0.36a0.57,0.57 0 0 0 0,0.13l0,4.2a0.75,0.75 0 0 0 0.59,0.7a0.49,0.49 0 0 0 0.58,-0.38a0.41,0.41 0 0 0 0,-0.11l0,-4.2z" fill="#4fc3f7" fill-rule="evenodd" id="svg_68"/>
  <path d="m126.57,232.83l-21.3,-15.18l-14.35,5.47l21.24,15.33l14.41,-5.62zm-14.71,6.73l-22.43,-16.18a0.65,0.65 0 0 1 -0.23,-0.84a0.45,0.45 0 0 1 0.22,-0.19l15.56,-5.93a0.63,0.63 0 0 1 0.58,0.11l22.5,16a0.65,0.65 0 0 1 0.23,0.84a0.43,0.43 0 0 1 -0.24,0.2l-15.6,6.08a0.63,0.63 0 0 1 -0.59,-0.09z" fill="#4fc3f7" fill-rule="evenodd" id="svg_69"/>
  <path d="m92.23,224.8a0.72,0.72 0 0 0 -0.59,-0.69a0.47,0.47 0 0 0 -0.57,0.35a0.57,0.57 0 0 0 0,0.13l0,4.2a0.74,0.74 0 0 0 0.58,0.7a0.48,0.48 0 0 0 0.58,-0.36a0.57,0.57 0 0 0 0,-0.13l0,-4.2zm17.45,-4.79l-0.32,-0.79l-16.23,5.87l0.32,0.79l16.23,-5.87zm3.34,2.49l-16.23,5.87l-0.32,-0.79l16.23,-5.87l0.32,0.79zm3.5,2.31l-16.23,5.87l-0.32,-0.79l16.22,-5.88l0.32,0.79l0.01,0.01zm4.31,3l-16.23,5.87l-0.32,-0.79l16.24,-5.81l0.32,0.79l-0.01,-0.06zm-11.79,9.23l-0.32,-0.79l16.23,-5.87l0.32,0.79l-16.23,5.87z" fill="#4fc3f7" fill-rule="evenodd" id="svg_70"/>
  <path d="m123.52,230.32c-1.38,-0.62 -2.49,0.17 -2.49,1.77a4.76,4.76 0 0 0 2.49,4c1.38,0.62 2.5,-0.17 2.5,-1.77a4.77,4.77 0 0 0 -2.5,-4z" fill-rule="evenodd" fill="url(#q)" id="svg_71"/>
  <path d="m122.75,230.1a3.85,3.85 0 0 0 -1.54,0.23c-0.31,0.14 1.78,1.32 1.54,-0.23z" fill-rule="evenodd" fill="url(#r)" id="svg_72"/>
  <path d="m123.52,236.43a3.84,3.84 0 0 0 1.54,-0.22c0.32,-0.14 -1.77,-1.32 -1.54,0.22z" fill-rule="evenodd" fill="url(#s)" id="svg_73"/>
  <path d="m122.64,230.43c-1.37,-0.62 -2.49,0.17 -2.49,1.77a4.74,4.74 0 0 0 2.49,4c1.38,0.63 2.5,-0.16 2.5,-1.76a4.79,4.79 0 0 0 -2.5,-4.01z" fill="#473f47" fill-rule="evenodd" id="svg_74"/>
  <path d="m122.64,232.48c-0.4,-0.19 -0.73,0.05 -0.73,0.52a1.39,1.39 0 0 0 0.73,1.18c0.41,0.18 0.74,0 0.74,-0.52a1.39,1.39 0 0 0 -0.74,-1.18z" fill-rule="evenodd" fill="url(#t)" id="svg_75"/>
  <path d="m123.23,229.22a0.73,0.73 0 0 0 -0.59,-0.69a0.48,0.48 0 0 0 -0.57,0.37a0.49,0.49 0 0 0 0,0.12l0,4.2a0.73,0.73 0 0 0 0.58,0.69a0.46,0.46 0 0 0 0.57,-0.33a0.39,0.39 0 0 0 0,-0.15l0.01,-4.21z" fill-rule="evenodd" fill="url(#u)" id="svg_76"/>
  <path d="m108.58,187.72l0.82,23.71a0.4,0.4 0 0 0 0.33,0.39a0.28,0.28 0 0 0 0.3,-0.26l0,-0.05l-0.81,-23.71a0.42,0.42 0 0 0 -0.33,-0.39a0.28,0.28 0 0 0 -0.31,0.25l0,0.06zm20.52,14.5l-4,20.3a0.41,0.41 0 0 0 0.25,0.45a0.26,0.26 0 0 0 0.35,-0.15a0.14,0.14 0 0 0 0,-0.06l4,-20.29a0.4,0.4 0 0 0 -0.2,-0.46a0.28,0.28 0 0 0 -0.36,0.13a0.19,0.19 0 0 0 0,0.07l-0.04,0.01zm-14.89,-10.53l-1.48,22.15a0.41,0.41 0 0 0 0.3,0.42a0.28,0.28 0 0 0 0.33,-0.21l1.48,-22.16a0.41,0.41 0 0 0 -0.3,-0.42a0.28,0.28 0 0 0 -0.33,0.21a0.13,0.13 0 0 0 0,0.01zm9.54,6.74l-3.63,20.58a0.42,0.42 0 0 0 0.26,0.44a0.27,0.27 0 0 0 0.35,-0.12a0.29,0.29 0 0 0 0,-0.09l3.62,-20.56a0.42,0.42 0 0 0 -0.25,-0.45a0.26,0.26 0 0 0 -0.35,0.15a0.19,0.19 0 0 0 0,0.07l0,-0.02zm-7.32,18a0.41,0.41 0 0 0 0.28,0.43a0.26,0.26 0 0 0 0.33,-0.15a0.29,0.29 0 0 0 0,-0.09l2.68,-21.23a0.41,0.41 0 0 0 -0.2,-0.38a0.26,0.26 0 0 0 -0.34,0.16a0.24,0.24 0 0 0 0,0.08l-2.75,21.18z" fill-rule="evenodd" fill="url(#v)" id="svg_77"/>
  <path d="m103.99,185.01l31.79,22.62l-6,17.31l-24.26,-17.21l-1.53,-22.72zm0.69,23.62l25.16,17.91a0.55,0.55 0 0 0 0.78,-0.06l0.07,-0.11l6.48,-18.63a0.82,0.82 0 0 0 -0.31,-0.9l-33.34,-23.66a0.55,0.55 0 0 0 -0.78,0.06l-0.07,0.11a0.84,0.84 0 0 0 -0.07,0.35l1.71,24.31a0.8,0.8 0 0 0 0.37,0.65l0,-0.03z" fill-rule="evenodd" fill="url(#w)" id="svg_78"/>
  <path d="m87.67,214.01l-6.05,-21.07l21.09,-8.19l1.56,22.8l-16.6,6.46zm17.9,-5.89l-1.67,-24.32a0.8,0.8 0 0 0 -0.68,-0.75a0.58,0.58 0 0 0 -0.26,0.05l-22.4,8.7a0.63,0.63 0 0 0 -0.32,0.78l6.45,22.43a0.74,0.74 0 0 0 0.8,0.58l0.11,0l17.63,-6.85a0.58,0.58 0 0 0 0.34,-0.62z" fill-rule="evenodd" fill="url(#x)" id="svg_79"/>
  <path d="m98.96,185.29l2.36,24.05a0.4,0.4 0 0 0 0.35,0.37a0.28,0.28 0 0 0 0.28,-0.3l-2.35,-24.05a0.41,0.41 0 0 0 -0.35,-0.37a0.29,0.29 0 0 0 -0.29,0.29l0,0.01zm-4.55,1.78l3.5,23.62a0.39,0.39 0 0 0 0.37,0.34a0.29,0.29 0 0 0 0.27,-0.31l0,-0.05l-3.5,-23.61a0.39,0.39 0 0 0 -0.36,-0.34a0.3,0.3 0 0 0 -0.28,0.3l0,0.05zm-8,3.13l4.27,23.31a0.38,0.38 0 0 0 0.37,0.34a0.3,0.3 0 0 0 0.26,-0.34l-4.27,-23.31a0.39,0.39 0 0 0 -0.38,-0.33a0.28,0.28 0 0 0 -0.25,0.31a0.11,0.11 0 0 0 0,0.02zm4.24,-1.92a0.39,0.39 0 0 1 0.37,0.34l3.9,23.46a0.28,0.28 0 0 1 -0.21,0.35a0.39,0.39 0 0 1 -0.37,-0.34l-3.9,-23.45a0.29,0.29 0 0 1 0.2,-0.36l0.01,0z" fill-rule="evenodd" fill="url(#y)" id="svg_80"/>
  <path d="m104.97,217.12a0.73,0.73 0 0 0 0.62,0.65a0.47,0.47 0 0 0 0.55,-0.38a0.66,0.66 0 0 0 0,-0.14l-2.89,-42a0.73,0.73 0 0 0 -0.63,-0.66a0.47,0.47 0 0 0 -0.54,0.39a0.33,0.33 0 0 0 0,0.14l2.89,42z" fill-rule="evenodd" fill="url(#z)" id="svg_81"/>
  <path d="m103.18,176.16a0.92,0.92 0 0 0 0.45,-1.23a0.67,0.67 0 0 0 -0.06,-0.12a1.18,1.18 0 0 0 -1.42,-0.64l-24.13,9.37a0.93,0.93 0 0 0 -0.47,1.21a0.54,0.54 0 0 0 0.07,0.13a1.21,1.21 0 0 0 1.42,0.65l24.14,-9.37z" fill="#4fc3f7" fill-rule="evenodd" id="svg_82"/>
  <path d="m95.6,174.34s3,0.93 3.56,2s0.82,3.46 0.39,3.52s-1.58,-2.33 -2,-2.43s-1,-0.53 -0.91,-0.15s0.58,1 0.42,1.17s-0.94,-0.84 -1.37,-1s-0.94,-1.84 -1.42,-2.24s1.33,-0.87 1.33,-0.87zm-20.72,-3.52l4.75,8.34l-1.53,1.03l-6.46,-6.93l3.24,-2.44z" fill="#ffb27d" id="svg_83"/>
  <path d="m79.17,179.01a3.88,3.88 0 0 1 0.72,0.26a5.07,5.07 0 0 1 1.42,0.65a6.86,6.86 0 0 1 1.77,2.36a1.7,1.7 0 0 1 0.13,1.46a1.92,1.92 0 0 1 -0.87,0.67a0.75,0.75 0 0 1 -0.3,0.09a0.79,0.79 0 0 1 -0.43,-0.21l-2.21,-1.85a3.12,3.12 0 0 1 -0.82,-0.88c-0.19,-0.34 -0.25,-0.74 -0.42,-1.09s-0.51,-0.55 -0.26,-0.89s0.9,-0.46 1.27,-0.57z" fill="#ffb27d" id="svg_84"/>
  <path d="m88.86,222.81a0.69,0.69 0 0 0 0.73,0.52a0.48,0.48 0 0 0 0.42,-0.53l0,-0.12l-10.89,-38.22a0.71,0.71 0 0 0 -0.73,-0.52a0.5,0.5 0 0 0 -0.42,0.55l0,0.11l10.89,38.21z" fill-rule="evenodd" fill="url(#A)" id="svg_85"/>
  <path d="m92.52,225.9c-1.38,-0.63 -2.49,0.16 -2.49,1.76a4.76,4.76 0 0 0 2.49,4c1.38,0.62 2.5,-0.17 2.5,-1.77a4.74,4.74 0 0 0 -2.5,-3.99z" fill-rule="evenodd" fill="url(#B)" id="svg_86"/>
  <path d="m91.75,225.67a3.85,3.85 0 0 0 -1.54,0.23c-0.31,0.11 1.78,1.32 1.54,-0.23z" fill-rule="evenodd" fill="url(#C)" id="svg_87"/>
  <path d="m92.52,232.01a3.67,3.67 0 0 0 1.54,-0.22c0.32,-0.15 -1.77,-1.33 -1.54,0.22z" fill-rule="evenodd" fill="url(#D)" id="svg_88"/>
  <path d="m91.64,226.01c-1.37,-0.62 -2.49,0.17 -2.49,1.77a4.74,4.74 0 0 0 2.49,4c1.38,0.63 2.5,-0.16 2.5,-1.76a4.79,4.79 0 0 0 -2.5,-4.01z" fill="#473f47" fill-rule="evenodd" id="svg_89"/>
  <path d="m91.64,228.01c-0.4,-0.19 -0.73,0.05 -0.73,0.52a1.39,1.39 0 0 0 0.73,1.18c0.41,0.19 0.74,0 0.74,-0.52a1.39,1.39 0 0 0 -0.74,-1.18z" fill-rule="evenodd" fill="url(#E)" id="svg_90"/>
  <path d="m108,236.66c-1.37,-0.62 -2.49,0.17 -2.49,1.77a4.76,4.76 0 0 0 2.49,4c1.38,0.62 2.5,-0.17 2.5,-1.77a4.77,4.77 0 0 0 -2.5,-4z" fill-rule="evenodd" fill="url(#F)" id="svg_91"/>
  <path d="m107.2,236.44a3.85,3.85 0 0 0 -1.54,0.23c-0.3,0.14 1.78,1.34 1.54,-0.23z" fill-rule="evenodd" fill="url(#G)" id="svg_92"/>
  <path d="m107.98,242.77a3.84,3.84 0 0 0 1.54,-0.22c0.31,-0.14 -1.78,-1.32 -1.54,0.22z" fill-rule="evenodd" fill="url(#H)" id="svg_93"/>
  <path d="m107.1,236.77c-1.38,-0.62 -2.5,0.17 -2.5,1.77a4.74,4.74 0 0 0 2.5,4c1.38,0.63 2.49,-0.16 2.49,-1.76a4.76,4.76 0 0 0 -2.49,-4.01z" fill="#473f47" fill-rule="evenodd" id="svg_94"/>
  <path d="m107.69,235.57a0.75,0.75 0 0 0 -0.59,-0.7a0.48,0.48 0 0 0 -0.58,0.36a0.57,0.57 0 0 0 0,0.13l0,4.2a0.75,0.75 0 0 0 0.59,0.7a0.49,0.49 0 0 0 0.58,-0.38a0.41,0.41 0 0 0 0,-0.11l0,-4.2zm-15.46,-10.77a0.72,0.72 0 0 0 -0.59,-0.69a0.47,0.47 0 0 0 -0.57,0.35a0.57,0.57 0 0 0 0,0.13l0,4.2a0.74,0.74 0 0 0 0.58,0.7a0.48,0.48 0 0 0 0.58,-0.36a0.57,0.57 0 0 0 0,-0.13l0,-4.2z" fill="#fff" fill-rule="evenodd" id="svg_95"/>
  <path d="m109.68,220.01l-0.32,-0.79l-16.23,5.87l0.32,0.79l16.23,-5.87zm3.34,2.49l-16.23,5.87l-0.32,-0.79l16.23,-5.87l0.32,0.79zm3.5,2.31l-16.23,5.87l-0.32,-0.79l16.22,-5.88l0.32,0.79l0.01,0.01zm4.31,3l-16.23,5.87l-0.32,-0.79l16.24,-5.81l0.32,0.79l-0.01,-0.06zm-11.79,9.23l-0.32,-0.79l16.23,-5.87l0.32,0.79l-16.23,5.87z" fill-rule="evenodd" fill="url(#I)" id="svg_96"/>
  <path d="m113.23,231.78l1.51,-15.08l20.7,-8l-5.83,16.76l-16.38,6.36l0,-0.04zm17.5,-5.49l6.44,-18.52a0.83,0.83 0 0 0 -0.39,-0.95a0.67,0.67 0 0 0 -0.5,-0.05l-22.42,8.71a0.59,0.59 0 0 0 -0.35,0.49l-1.67,16.71a0.83,0.83 0 0 0 0.57,0.85a0.53,0.53 0 0 0 0.35,0l17.65,-6.86a0.56,0.56 0 0 0 0.32,-0.38z" fill="#fff" fill-rule="evenodd" id="svg_97"/>
  <path d="m130.87,209.41l-3.95,17.6a0.41,0.41 0 0 0 0.24,0.46a0.28,0.28 0 0 0 0.36,-0.13a0.19,0.19 0 0 0 0,-0.07l4,-17.61a0.42,0.42 0 0 0 -0.24,-0.45a0.28,0.28 0 0 0 -0.36,0.13a0.19,0.19 0 0 0 0,0.07l-0.05,0zm-4.56,1.78a0.28,0.28 0 0 1 0.3,-0.24l0.07,0a0.42,0.42 0 0 1 0.26,0.44l-2.8,17.14a0.27,0.27 0 0 1 -0.29,0.25l-0.08,0a0.42,0.42 0 0 1 -0.26,-0.45l2.8,-17.14zm-8,3.14l-2,16.84a0.41,0.41 0 0 0 0.28,0.43a0.28,0.28 0 0 0 0.34,-0.18a0.17,0.17 0 0 0 0,-0.07l2,-16.84a0.41,0.41 0 0 0 -0.28,-0.43a0.28,0.28 0 0 0 -0.34,0.18a0.17,0.17 0 0 0 0,0.07zm1.59,15.42a0.42,0.42 0 0 0 0.27,0.44a0.26,0.26 0 0 0 0.35,-0.18l2.4,-17a0.41,0.41 0 0 0 -0.27,-0.44a0.29,0.29 0 0 0 -0.35,0.19a0.43,0.43 0 0 0 0,0.05l-2.4,16.94z" fill="#fff" fill-rule="evenodd" id="svg_98"/>
  <path d="m64.52,130.93a3.44,3.44 0 0 0 -0.38,0.93a4.42,4.42 0 0 0 0,3.46a4.74,4.74 0 0 0 0.69,1.22a2.07,2.07 0 0 0 1.18,0.73a0.38,0.38 0 0 0 0.15,0a0.22,0.22 0 0 0 0.1,-0.09a1.3,1.3 0 0 0 0,-0.95a7.93,7.93 0 0 1 0.26,-3.59a4.58,4.58 0 0 0 0.23,-1.32a1.06,1.06 0 0 0 -0.79,-1.09a1.41,1.41 0 0 0 -1.44,0.7z" fill="#4fc3f7" id="svg_99"/>
  <path fill="#fff" fill-rule="evenodd" d="m80.56,191.79l33.96,23.87l-0.53,1.68l-33.12,-23.77l-0.31,-1.78z" id="svg_100"/>
  <path fill="#fff" fill-rule="evenodd" d="m88.61,198.88l3.16,19.08l0.66,0.2l-2.59,-18.56l-1.23,-0.72zm6.15,4.3l1.72,18.35l0.66,0.22l-1.15,-17.84l-1.23,-0.73zm6.03,4.01l0.2,17.47l0.66,0.22l0.37,-16.94l-1.23,-0.75zm4.5,3.82l0.84,17.77l0.66,0.22l-0.27,-17.25l-1.23,-0.74z" id="svg_101"/>
  <path fill="#fff" fill-rule="evenodd" d="m112.26,231.78l-24.6,-17.78l-0.17,1.62l24.92,17.91l-0.15,-1.75z" id="svg_102"/>
  <path stroke="null" d="m45.13017,102.81088a7.03812,5.1127 0 0 0 6.91883,5.19936l15.50773,0l6.97848,7.33976l0,-7.33976l13.12193,0a7.03812,5.1127 0 0 0 6.94269,-5.19936l0,-14.73152a7.06198,5.13003 0 0 0 -6.94269,-5.19936l-35.59621,0l-6.93076,19.93088z" fill="#fff" id="svg_103"/>
  <text style="cursor: move;" stroke="null" fill="#000000" x="52" y="99.5985" id="svg_109" stroke-width="0" font-size="9" font-family="Noto Sans JP" text-anchor="start" xml:space="preserve">Vamos lรก!</text>
 </g>
</svg>